<svg width="1200" height="630" viewBox="0 0 1200 630" xmlns="http://www.w3.org/2000/svg"><rect x="0" y="0" width="1200" height="630" fill="#fefbfb"/><defs><clipPath id="satori_bc-id-0"><path x="105" y="39" width="1056" height="504" d="M109,39 h1048 a4,4 0 0 1 4,4 v496 a4,4 0 0 1 -4,4 h-1048 a4,4 0 0 1 -4,-4 v-496 a4,4 0 0 1 4,-4"/></clipPath></defs><g opacity="0.9"><path x="105" y="39" width="1056" height="504" fill="#ecebeb" d="M109,39 h1048 a4,4 0 0 1 4,4 v496 a4,4 0 0 1 -4,4 h-1048 a4,4 0 0 1 -4,-4 v-496 a4,4 0 0 1 4,-4"/><path width="1056" height="504" clip-path="url(#satori_bc-id-0)" fill="none" stroke="#000" stroke-width="8" d="M106.172,40.172 A4,4 0 0 1 109,39 h1048 a4,4 0 0 1 4,4 v496 a4,4 0 0 1 -4,4 h-1048 a4,4 0 0 1 -4,-4 v-496 A4,4 0 0 1 106.172,40.172"/></g><defs><clipPath id="satori_bc-id-1"><path x="72" y="63" width="1056" height="504" d="M76,63 h1048 a4,4 0 0 1 4,4 v496 a4,4 0 0 1 -4,4 h-1048 a4,4 0 0 1 -4,-4 v-496 a4,4 0 0 1 4,-4"/></clipPath></defs><path x="72" y="63" width="1056" height="504" fill="#fefbfb" d="M76,63 h1048 a4,4 0 0 1 4,4 v496 a4,4 0 0 1 -4,4 h-1048 a4,4 0 0 1 -4,-4 v-496 a4,4 0 0 1 4,-4"/><path width="1056" height="504" clip-path="url(#satori_bc-id-1)" fill="none" stroke="#000" stroke-width="8" d="M73.172,64.172 A4,4 0 0 1 76,63 h1048 a4,4 0 0 1 4,4 v496 a4,4 0 0 1 -4,4 h-1048 a4,4 0 0 1 -4,-4 v-496 A4,4 0 0 1 73.172,64.172"/><clipPath id="satori_cp-id-1-0-0"><rect x="128" y="103" width="944" height="370"/></clipPath><mask id="satori_om-id-1-0-0"><rect x="128" y="103" width="944" height="370" fill="#fff"/></mask><path fill="black" d="M169.5 141.6L155 141.6L155 183.0L144.2 183.0L144.2 141.6L129.7 141.6L129.7 132.7L169.5 132.7L169.5 141.6ZM192.8 183.8L192.8 183.8Q188.5 183.8 185.0 182.5Q181.6 181.2 179.2 178.6Q176.7 176.1 175.4 172.5Q174.2 168.9 174.2 164.4L174.2 164.4Q174.2 159.8 175.4 156.2Q176.7 152.6 179.2 150.1Q181.6 147.6 185.0 146.3Q188.5 144.9 192.8 144.9L192.8 144.9Q197.1 144.9 200.6 146.3Q204.0 147.6 206.4 150.1Q208.9 152.6 210.2 156.2Q211.4 159.8 211.4 164.4L211.4 164.4Q211.4 168.9 210.2 172.5Q208.9 176.1 206.4 178.6Q204.0 181.2 200.6 182.5Q197.1 183.8 192.8 183.8ZM192.8 175.9L192.8 175.9Q196.4 175.9 198.4 173.7Q200.4 171.4 200.4 167.3L200.4 167.3L200.4 161.4Q200.4 157.3 198.4 155.1Q196.4 152.9 192.8 152.9L192.8 152.9Q189.2 152.9 187.2 155.1Q185.2 157.3 185.2 161.4L185.2 161.4L185.2 167.3Q185.2 171.4 187.2 173.7Q189.2 175.9 192.8 175.9ZM242.3 183.0L242.3 176.2L241.8 176.2Q240.6 179.4 238.0 181.6Q235.4 183.8 230.9 183.8L230.9 183.8Q228.2 183.8 226.0 182.9Q223.8 182.0 222.2 180.2Q220.6 178.4 219.7 175.8Q218.8 173.2 218.8 169.8L218.8 169.8L218.8 145.8L229.4 145.8L229.4 168.4Q229.4 175.6 235.7 175.6L235.7 175.6Q236.9 175.6 238.1 175.3Q239.3 175.0 240.2 174.3Q241.1 173.6 241.7 172.6Q242.3 171.6 242.3 170.2L242.3 170.2L242.3 145.8L252.9 145.8L252.9 183.0L242.3 183.0ZM262.9 183.0L262.9 174.7L271.5 174.7L271.5 154.1L262.9 154.1L262.9 145.8L282.2 145.8L282.2 156.3L282.7 156.3Q283.2 154.3 284.1 152.4Q285.0 150.5 286.4 149.0Q287.8 147.5 289.8 146.7Q291.8 145.8 294.5 145.8L294.5 145.8L298.1 145.8L298.1 155.6L290.1 155.6Q286.2 155.6 284.2 157.9Q282.2 160.3 282.2 163.7L282.2 163.7L282.2 174.7L294.4 174.7L294.4 183.0L262.9 183.0Z M382.2 183.0L368.5 183.0Q362.7 183.0 359.9 179.9Q357.1 176.9 357.1 172.2L357.1 172.2L357.1 154.1L347.0 154.1L347.0 145.8L353.6 145.8Q356.0 145.8 357.0 144.9Q358.0 143.9 358.0 141.4L358.0 141.4L358.0 132.7L367.8 132.7L367.8 145.8L382.2 145.8L382.2 154.1L367.8 154.1L367.8 174.7L382.2 174.7L382.2 183.0ZM391.9 183.0L391.9 129.7L402.5 129.7L402.5 152.6L403.0 152.6Q403.6 151.0 404.6 149.6Q405.5 148.2 406.8 147.2Q408.2 146.2 409.9 145.5Q411.7 144.9 413.9 144.9L413.9 144.9Q416.6 144.9 418.8 145.8Q421.0 146.7 422.6 148.5Q424.2 150.3 425.1 152.9Q426.0 155.5 426.0 158.9L426.0 158.9L426.0 183.0L415.4 183.0L415.4 160.3Q415.4 153.1 409.1 153.1L409.1 153.1Q407.9 153.1 406.7 153.5Q405.5 153.8 404.6 154.5Q403.6 155.2 403.1 156.2Q402.5 157.2 402.5 158.5L402.5 158.5L402.5 183.0L391.9 183.0ZM453.0 183.8L453.0 183.8Q443.6 183.8 438.8 178.6Q434 173.4 434 164.5L434 164.5Q434 160.0 435.3 156.3Q436.5 152.7 438.9 150.2Q441.2 147.6 444.5 146.3Q447.9 144.9 452.1 144.9L452.1 144.9Q456.2 144.9 459.6 146.3Q462.9 147.6 465.2 150.0Q467.5 152.5 468.7 156.0Q470 159.5 470 163.8L470 163.8L470 167.0L444.6 167.0L444.6 167.6Q444.6 171.2 446.8 173.4Q449.0 175.6 453.4 175.6L453.4 175.6Q456.7 175.6 459.1 174.3Q461.4 173.1 463.2 171.0L463.2 171.0L468.9 177.3Q466.8 179.9 462.9 181.9Q459.0 183.8 453.0 183.8ZM452.1 152.6L452.1 152.6Q448.7 152.6 446.6 154.7Q444.6 156.8 444.6 160.4L444.6 160.4L444.6 161.0L459.6 161.0L459.6 160.4Q459.6 156.7 457.6 154.7Q455.6 152.6 452.1 152.6Z M521.7 183.0L521.7 174.7L533.1 174.7L533.1 138.0L521.7 138.0L521.7 129.7L543.7 129.7L543.7 174.7L555.1 174.7L555.1 183.0L521.7 183.0ZM601.2 183.0L595.1 183.0Q591.8 183.0 589.7 181.3Q587.7 179.6 587.4 176.4L587.4 176.4L587 176.4Q586.0 180.1 583.0 181.9Q580.0 183.8 575.7 183.8L575.7 183.8Q570.3 183.8 567.0 180.9Q563.7 178.0 563.7 172.7L563.7 172.7Q563.7 166.9 568.0 164.1Q572.2 161.3 580.4 161.3L580.4 161.3L586.4 161.3L586.4 159.4Q586.4 156.1 584.9 154.4Q583.3 152.7 579.7 152.7L579.7 152.7Q576.3 152.7 574.2 154.0Q572.1 155.3 570.6 157.4L570.6 157.4L564.8 152.2Q566.6 149.0 570.6 147.0Q574.6 144.9 580.9 144.9L580.9 144.9Q588.5 144.9 592.8 148.4Q597.1 151.9 597.1 159.0L597.1 159.0L597.1 175.2L601.2 175.2L601.2 183.0ZM579.7 176.8L579.7 176.8Q582.5 176.8 584.5 175.5Q586.4 174.1 586.4 171.5L586.4 171.5L586.4 167.0L580.7 167.0Q574.2 167.0 574.2 171.4L574.2 171.4L574.2 172.9Q574.2 174.8 575.7 175.8Q577.2 176.8 579.7 176.8ZM641.4 183.0L627.7 183.0Q621.9 183.0 619.1 179.9Q616.3 176.9 616.3 172.2L616.3 172.2L616.3 154.1L606.2 154.1L606.2 145.8L612.8 145.8Q615.2 145.8 616.2 144.9Q617.2 143.9 617.2 141.4L617.2 141.4L617.2 132.7L627.0 132.7L627.0 145.8L641.4 145.8L641.4 154.1L627.0 154.1L627.0 174.7L641.4 174.7L641.4 183.0ZM669.0 183.8L669.0 183.8Q659.6 183.8 654.8 178.6Q650.0 173.4 650.0 164.5L650.0 164.5Q650.0 160.0 651.3 156.3Q652.5 152.7 654.9 150.2Q657.2 147.6 660.5 146.3Q663.9 144.9 668.1 144.9L668.1 144.9Q672.2 144.9 675.6 146.3Q678.9 147.6 681.2 150.0Q683.5 152.5 684.7 156.0Q686.0 159.5 686.0 163.8L686.0 163.8L686.0 167.0L660.6 167.0L660.6 167.6Q660.6 171.2 662.8 173.4Q665.0 175.6 669.4 175.6L669.4 175.6Q672.7 175.6 675.1 174.3Q677.4 173.1 679.2 171.0L679.2 171.0L684.9 177.3Q682.8 179.9 678.9 181.9Q675.0 183.8 669.0 183.8ZM668.1 152.6L668.1 152.6Q664.7 152.6 662.6 154.7Q660.6 156.8 660.6 160.4L660.6 160.4L660.6 161.0L675.6 161.0L675.6 160.4Q675.6 156.7 673.6 154.7Q671.6 152.6 668.1 152.6ZM710.8 183.8L710.8 183.8Q704.6 183.8 700.0 181.9Q695.4 180.1 693.1 176.8L693.1 176.8L699.1 171.3Q701.3 173.7 704.2 175.0Q707.1 176.3 710.8 176.3L710.8 176.3Q714.0 176.3 715.8 175.4Q717.6 174.4 717.6 172.4L717.6 172.4Q717.6 170.8 716.4 170.2Q715.2 169.6 713.0 169.2L713.0 169.2L707.0 168.3Q704.5 167.9 702.3 167.1Q700.2 166.4 698.6 165.1Q697.0 163.8 696.1 161.9Q695.1 160.1 695.1 157.4L695.1 157.4Q695.1 151.6 699.6 148.2Q704.1 144.9 712.1 144.9L712.1 144.9Q717.6 144.9 721.5 146.4Q725.3 147.9 727.6 150.6L727.6 150.6L722.3 156.7Q720.6 154.9 718.0 153.6Q715.4 152.4 711.8 152.4L711.8 152.4Q705.6 152.4 705.6 156.2L705.6 156.2Q705.6 157.8 706.8 158.4Q708.0 159.0 710.2 159.4L710.2 159.4L716.1 160.3Q718.6 160.7 720.8 161.5Q722.9 162.2 724.6 163.5Q726.2 164.8 727.1 166.7Q728.0 168.6 728.0 171.2L728.0 171.2Q728.0 177.0 723.5 180.4Q719.0 183.8 710.8 183.8ZM771.0 183.0L757.3 183.0Q751.5 183.0 748.7 179.9Q745.9 176.9 745.9 172.2L745.9 172.2L745.9 154.1L735.8 154.1L735.8 145.8L742.4 145.8Q744.8 145.8 745.8 144.9Q746.8 143.9 746.8 141.4L746.8 141.4L746.8 132.7L756.6 132.7L756.6 145.8L771.0 145.8L771.0 154.1L756.6 154.1L756.6 174.7L771.0 174.7L771.0 183.0Z M166.2 276.6L152.5 276.6Q146.7 276.6 143.9 273.5Q141.1 270.5 141.1 265.8L141.1 265.8L141.1 247.7L131.0 247.7L131.0 239.4L137.6 239.4Q140.0 239.4 141.0 238.5Q142.0 237.5 142.0 235.0L142.0 235.0L142.0 226.3L151.8 226.3L151.8 239.4L166.2 239.4L166.2 247.7L151.8 247.7L151.8 268.3L166.2 268.3L166.2 276.6ZM176.5 276.6L176.5 268.3L185.1 268.3L185.1 247.7L176.5 247.7L176.5 239.4L195.8 239.4L195.8 249.9L196.3 249.9Q196.8 247.9 197.7 246.0Q198.6 244.1 200.0 242.6Q201.4 241.1 203.4 240.3Q205.4 239.4 208.1 239.4L208.1 239.4L211.7 239.4L211.7 249.2L203.7 249.2Q199.8 249.2 197.8 251.5Q195.8 253.9 195.8 257.3L195.8 257.3L195.8 268.3L208.0 268.3L208.0 276.6L176.5 276.6ZM237.0 277.4L237.0 277.4Q227.6 277.4 222.8 272.2Q218.0 267.0 218.0 258.1L218.0 258.1Q218.0 253.6 219.3 249.9Q220.5 246.3 222.9 243.8Q225.2 241.2 228.5 239.9Q231.9 238.5 236.1 238.5L236.1 238.5Q240.2 238.5 243.6 239.9Q246.9 241.2 249.2 243.6Q251.5 246.1 252.7 249.6Q254.0 253.1 254.0 257.4L254.0 257.4L254.0 260.6L228.6 260.6L228.6 261.2Q228.6 264.8 230.8 267.0Q233.0 269.2 237.4 269.2L237.4 269.2Q240.7 269.2 243.1 267.9Q245.4 266.7 247.2 264.6L247.2 264.6L252.9 270.9Q250.8 273.5 246.9 275.5Q243.0 277.4 237.0 277.4ZM236.1 246.2L236.1 246.2Q232.7 246.2 230.6 248.3Q228.6 250.4 228.6 254.0L228.6 254.0L228.6 254.6L243.6 254.6L243.6 254.0Q243.6 250.3 241.6 248.3Q239.6 246.2 236.1 246.2ZM272.9 276.6L262.3 276.6L262.3 239.4L272.9 239.4L272.9 246.2L273.4 246.2Q274.0 244.6 275.0 243.2Q275.9 241.8 277.2 240.8Q278.6 239.8 280.3 239.1Q282.1 238.5 284.3 238.5L284.3 238.5Q287.0 238.5 289.2 239.4Q291.4 240.3 293.0 242.1Q294.6 243.9 295.5 246.5Q296.4 249.1 296.4 252.5L296.4 252.5L296.4 276.6L285.8 276.6L285.8 253.9Q285.8 246.7 279.5 246.7L279.5 246.7Q278.3 246.7 277.1 247.1Q275.9 247.4 275.0 248.1Q274.0 248.8 273.5 249.8Q272.9 250.8 272.9 252.1L272.9 252.1L272.9 276.6ZM329.1 276.6L329.1 269.8L328.6 269.8Q327.2 273.2 324.6 275.3Q322.0 277.4 317.6 277.4L317.6 277.4Q314.5 277.4 311.9 276.3Q309.4 275.1 307.5 272.7Q305.7 270.4 304.7 266.7Q303.6 263.0 303.6 258.0L303.6 258.0Q303.6 252.9 304.7 249.3Q305.7 245.6 307.5 243.2Q309.4 240.8 311.9 239.7Q314.5 238.5 317.6 238.5L317.6 238.5Q319.8 238.5 321.5 239.1Q323.3 239.7 324.6 240.7Q325.9 241.7 326.9 243.1Q327.9 244.5 328.6 246.2L328.6 246.2L329.1 246.2L329.1 223.3L339.8 223.3L339.8 276.6L329.1 276.6ZM322.2 269.1L322.2 269.1Q325.0 269.1 327.0 267.8Q329.1 266.4 329.1 263.4L329.1 263.4L329.1 252.5Q329.1 249.6 327.0 248.2Q325.0 246.8 322.2 246.8L322.2 246.8Q318.6 246.8 316.6 249.0Q314.7 251.2 314.7 255.1L314.7 255.1L314.7 260.9Q314.7 264.7 316.6 266.9Q318.6 269.1 322.2 269.1ZM367.9 234.6L367.9 234.6Q364.3 234.6 362.9 233.2Q361.5 231.7 361.5 229.6L361.5 229.6L361.5 227.5Q361.5 225.4 362.9 223.9Q364.3 222.5 367.9 222.5L367.9 222.5Q371.5 222.5 372.9 223.9Q374.3 225.4 374.3 227.5L374.3 227.5L374.3 229.6Q374.3 231.7 372.9 233.2Q371.5 234.6 367.9 234.6ZM350.8 276.6L350.8 268.3L362.6 268.3L362.6 247.7L350.8 247.7L350.8 239.4L373.2 239.4L373.2 268.3L384.2 268.3L384.2 276.6L350.8 276.6ZM402.5 276.6L391.9 276.6L391.9 239.4L402.5 239.4L402.5 246.2L403.0 246.2Q403.6 244.6 404.6 243.2Q405.5 241.8 406.8 240.8Q408.2 239.8 409.9 239.1Q411.7 238.5 413.9 238.5L413.9 238.5Q416.6 238.5 418.8 239.4Q421.0 240.3 422.6 242.1Q424.2 243.9 425.1 246.5Q426.0 249.1 426.0 252.5L426.0 252.5L426.0 276.6L415.4 276.6L415.4 253.9Q415.4 246.7 409.1 246.7L409.1 246.7Q407.9 246.7 406.7 247.1Q405.5 247.4 404.6 248.1Q403.6 248.8 403.1 249.8Q402.5 250.8 402.5 252.1L402.5 252.1L402.5 276.6ZM472.4 280.3L472.4 280.3Q472.4 286.2 467.4 289.0Q462.4 291.8 451.8 291.8L451.8 291.8Q446.5 291.8 443.0 291.2Q439.5 290.6 437.5 289.4Q435.4 288.3 434.6 286.7Q433.8 285.1 433.8 283.2L433.8 283.2Q433.8 280.1 435.7 278.5Q437.5 276.8 440.9 276.0L440.9 276.0L440.9 275.5Q438.5 274.8 437.1 273.5Q435.7 272.2 435.7 269.7L435.7 269.7Q435.7 267.0 437.6 265.7Q439.4 264.4 442.4 263.7L442.4 263.7L442.4 263.2Q439.1 261.6 437.3 258.8Q435.4 255.9 435.4 251.8L435.4 251.8Q435.4 248.5 436.6 246.1Q437.7 243.6 439.9 241.9Q442.0 240.3 444.9 239.4Q447.9 238.5 451.6 238.5L451.6 238.5Q455.1 238.5 458.1 239.3L458.1 239.3L458.1 237.3Q458.1 235.2 459.6 233.7Q461.1 232.3 463.8 232.3L463.8 232.3L470.4 232.3L470.4 240.0L461.4 240.0L461.4 240.7Q464.5 242.3 466.1 245.1Q467.8 247.8 467.8 251.8L467.8 251.8Q467.8 255.0 466.7 257.5Q465.5 259.9 463.4 261.6Q461.2 263.3 458.2 264.2Q455.2 265.0 451.6 265.0L451.6 265.0Q449.9 265.0 448.4 264.9Q446.9 264.7 445.5 264.3L445.5 264.3Q444.7 264.7 444.2 265.4Q443.6 266.0 443.6 267.0L443.6 267.0Q443.6 267.9 444.1 268.4Q444.5 268.9 445.3 269.2Q446.0 269.4 447.0 269.5Q448.0 269.6 449.1 269.6L449.1 269.6L457.6 269.6Q461.6 269.6 464.4 270.4Q467.2 271.2 469.0 272.6Q470.8 274.0 471.6 276.0Q472.4 277.9 472.4 280.3ZM462.3 281.1L462.3 281.1Q462.3 279.6 461.1 278.8Q460.0 278.0 456.8 278.0L456.8 278.0L444.0 278.0Q442.6 279.2 442.6 281.0L442.6 281.0Q442.6 282.7 444.0 283.9Q445.5 285.0 449.0 285.0L449.0 285.0L455.3 285.0Q459.0 285.0 460.6 284.0Q462.3 283.0 462.3 281.1ZM451.6 258.3L451.6 258.3Q454.8 258.3 456.3 256.7Q457.8 255.1 457.8 252.6L457.8 252.6L457.8 250.9Q457.8 248.5 456.3 246.9Q454.8 245.3 451.6 245.3L451.6 245.3Q448.4 245.3 447.0 246.9Q445.5 248.5 445.5 250.9L445.5 250.9L445.5 252.6Q445.5 255.1 447.0 256.7Q448.4 258.3 451.6 258.3Z M521.9 276.6L521.9 268.3L532.9 268.3L532.9 247.7L521.2 247.7L521.2 239.4L532.9 239.4L532.9 234.0Q532.9 229.2 535.6 226.3Q538.4 223.3 544.2 223.3L544.2 223.3L556.8 223.3L556.8 231.6L543.5 231.6L543.5 239.4L556.8 239.4L556.8 247.7L543.5 247.7L543.5 268.3L555.2 268.3L555.2 276.6L521.9 276.6ZM565.3 276.6L565.3 268.3L573.9 268.3L573.9 247.7L565.3 247.7L565.3 239.4L584.6 239.4L584.6 249.9L585.1 249.9Q585.6 247.9 586.5 246.0Q587.4 244.1 588.8 242.6Q590.2 241.1 592.2 240.3Q594.2 239.4 596.9 239.4L596.9 239.4L600.5 239.4L600.5 249.2L592.5 249.2Q588.6 249.2 586.6 251.5Q584.6 253.9 584.6 257.3L584.6 257.3L584.6 268.3L596.8 268.3L596.8 276.6L565.3 276.6ZM644.4 276.6L638.3 276.6Q635.0 276.6 632.9 274.9Q630.9 273.2 630.6 270.0L630.6 270.0L630.2 270.0Q629.2 273.7 626.2 275.5Q623.2 277.4 618.9 277.4L618.9 277.4Q613.5 277.4 610.2 274.5Q606.9 271.6 606.9 266.3L606.9 266.3Q606.9 260.5 611.2 257.7Q615.4 254.9 623.6 254.9L623.6 254.9L629.6 254.9L629.6 253.0Q629.6 249.7 628.1 248.0Q626.5 246.3 622.9 246.3L622.9 246.3Q619.5 246.3 617.4 247.6Q615.3 248.9 613.8 251.0L613.8 251.0L608.0 245.8Q609.8 242.6 613.8 240.6Q617.8 238.5 624.1 238.5L624.1 238.5Q631.7 238.5 636.0 242.0Q640.3 245.5 640.3 252.6L640.3 252.6L640.3 268.8L644.4 268.8L644.4 276.6ZM622.9 270.4L622.9 270.4Q625.7 270.4 627.7 269.1Q629.6 267.7 629.6 265.1L629.6 265.1L629.6 260.6L623.9 260.6Q617.4 260.6 617.4 265.0L617.4 265.0L617.4 266.5Q617.4 268.4 618.9 269.4Q620.4 270.4 622.9 270.4ZM657.1 276.6L648.6 276.6L648.6 239.4L657.1 239.4L657.1 244.9L657.6 244.9Q658.5 242.3 660.1 240.4Q661.7 238.5 664.7 238.5L664.7 238.5Q670.1 238.5 671.3 244.9L671.3 244.9L671.7 244.9Q672.2 243.6 672.8 242.4Q673.5 241.3 674.4 240.4Q675.3 239.5 676.6 239.0Q677.9 238.5 679.7 238.5L679.7 238.5Q687.4 238.5 687.4 250.0L687.4 250.0L687.4 276.6L678.9 276.6L678.9 251.1Q678.9 248.5 678.0 247.4Q677.1 246.4 675.6 246.4L675.6 246.4Q674.3 246.4 673.3 247.3Q672.3 248.2 672.3 250.1L672.3 250.1L672.3 276.6L663.7 276.6L663.7 251.1Q663.7 248.5 662.9 247.4Q662.0 246.4 660.6 246.4L660.6 246.4Q659.1 246.4 658.1 247.3Q657.1 248.2 657.1 250.1L657.1 250.1L657.1 276.6ZM712.2 277.4L712.2 277.4Q702.8 277.4 698.0 272.2Q693.2 267.0 693.2 258.1L693.2 258.1Q693.2 253.6 694.5 249.9Q695.7 246.3 698.1 243.8Q700.4 241.2 703.7 239.9Q707.1 238.5 711.3 238.5L711.3 238.5Q715.4 238.5 718.8 239.9Q722.1 241.2 724.4 243.6Q726.7 246.1 727.9 249.6Q729.2 253.1 729.2 257.4L729.2 257.4L729.2 260.6L703.8 260.6L703.8 261.2Q703.8 264.8 706.0 267.0Q708.2 269.2 712.6 269.2L712.6 269.2Q715.9 269.2 718.3 267.9Q720.6 266.7 722.4 264.6L722.4 264.6L728.1 270.9Q726.0 273.5 722.1 275.5Q718.2 277.4 712.2 277.4ZM711.3 246.2L711.3 246.2Q707.9 246.2 705.8 248.3Q703.8 250.4 703.8 254.0L703.8 254.0L703.8 254.6L718.8 254.6L718.8 254.0Q718.8 250.3 716.8 248.3Q714.8 246.2 711.3 246.2ZM737.7 276.6L733.3 239.4L742.2 239.4L744.8 269.5L745.5 269.5L749.9 239.4L759.3 239.4L763.6 269.5L764.3 269.5L767.1 239.4L775.5 239.4L771.1 276.6L758.4 276.6L754.8 250.9L754.0 250.9L750.4 276.6L737.7 276.6ZM797.6 277.4L797.6 277.4Q793.3 277.4 789.8 276.1Q786.4 274.8 784.0 272.2Q781.5 269.7 780.2 266.1Q779.0 262.5 779.0 258.0L779.0 258.0Q779.0 253.4 780.2 249.8Q781.5 246.2 784.0 243.7Q786.4 241.2 789.8 239.9Q793.3 238.5 797.6 238.5L797.6 238.5Q801.9 238.5 805.4 239.9Q808.8 241.2 811.2 243.7Q813.7 246.2 815.0 249.8Q816.2 253.4 816.2 258.0L816.2 258.0Q816.2 262.5 815.0 266.1Q813.7 269.7 811.2 272.2Q808.8 274.8 805.4 276.1Q801.9 277.4 797.6 277.4ZM797.6 269.5L797.6 269.5Q801.2 269.5 803.2 267.3Q805.2 265.0 805.2 260.9L805.2 260.9L805.2 255.0Q805.2 250.9 803.2 248.7Q801.2 246.5 797.6 246.5L797.6 246.5Q794.0 246.5 792.0 248.7Q790.0 250.9 790.0 255.0L790.0 255.0L790.0 260.9Q790.0 265.0 792.0 267.3Q794.0 269.5 797.6 269.5ZM824.5 276.6L824.5 268.3L833.1 268.3L833.1 247.7L824.5 247.7L824.5 239.4L843.8 239.4L843.8 249.9L844.3 249.9Q844.8 247.9 845.7 246.0Q846.6 244.1 848.0 242.6Q849.4 241.1 851.4 240.3Q853.4 239.4 856.1 239.4L856.1 239.4L859.7 239.4L859.7 249.2L851.7 249.2Q847.8 249.2 845.8 251.5Q843.8 253.9 843.8 257.3L843.8 257.3L843.8 268.3L856.0 268.3L856.0 276.6L824.5 276.6ZM867.1 276.6L867.1 223.3L877.7 223.3L877.7 253.5L878.2 253.5L883.2 247.7L891.0 239.4L903.2 239.4L888.8 254.1L904.7 276.6L892.1 276.6L881.3 260.1L877.7 263.7L877.7 276.6L867.1 276.6Z M149.2 371.0L149.2 371.0Q143.0 371.0 138.4 369.1Q133.8 367.3 131.5 364.0L131.5 364.0L137.5 358.5Q139.7 360.9 142.6 362.2Q145.5 363.5 149.2 363.5L149.2 363.5Q152.4 363.5 154.2 362.6Q156.0 361.6 156.0 359.6L156.0 359.6Q156.0 358.0 154.8 357.4Q153.6 356.8 151.4 356.4L151.4 356.4L145.4 355.5Q142.9 355.1 140.7 354.3Q138.6 353.6 137 352.3Q135.4 351.0 134.5 349.1Q133.5 347.3 133.5 344.6L133.5 344.6Q133.5 338.8 138.0 335.4Q142.5 332.1 150.5 332.1L150.5 332.1Q156.0 332.1 159.9 333.6Q163.7 335.1 166.0 337.8L166.0 337.8L160.7 343.9Q159.0 342.1 156.4 340.8Q153.8 339.6 150.2 339.6L150.2 339.6Q144.0 339.6 144.0 343.4L144.0 343.4Q144.0 345.0 145.2 345.6Q146.4 346.2 148.6 346.6L148.6 346.6L154.5 347.5Q157.0 347.9 159.2 348.7Q161.3 349.4 163.0 350.7Q164.6 352.0 165.5 353.9Q166.4 355.8 166.4 358.4L166.4 358.4Q166.4 364.2 161.9 367.6Q157.4 371.0 149.2 371.0ZM192.8 371.0L192.8 371.0Q188.5 371.0 185.0 369.7Q181.6 368.4 179.2 365.8Q176.7 363.3 175.4 359.7Q174.2 356.1 174.2 351.6L174.2 351.6Q174.2 347.0 175.4 343.4Q176.7 339.8 179.2 337.3Q181.6 334.8 185.0 333.5Q188.5 332.1 192.8 332.1L192.8 332.1Q197.1 332.1 200.6 333.5Q204.0 334.8 206.4 337.3Q208.9 339.8 210.2 343.4Q211.4 347.0 211.4 351.6L211.4 351.6Q211.4 356.1 210.2 359.7Q208.9 363.3 206.4 365.8Q204.0 368.4 200.6 369.7Q197.1 371.0 192.8 371.0ZM192.8 363.1L192.8 363.1Q196.4 363.1 198.4 360.9Q200.4 358.6 200.4 354.5L200.4 354.5L200.4 348.6Q200.4 344.5 198.4 342.3Q196.4 340.1 192.8 340.1L192.8 340.1Q189.2 340.1 187.2 342.3Q185.2 344.5 185.2 348.6L185.2 348.6L185.2 354.5Q185.2 358.6 187.2 360.9Q189.2 363.1 192.8 363.1ZM219.3 370.2L219.3 361.9L230.7 361.9L230.7 325.2L219.3 325.2L219.3 316.9L241.3 316.9L241.3 361.9L252.7 361.9L252.7 370.2L219.3 370.2ZM281.5 328.2L281.5 328.2Q277.9 328.2 276.5 326.8Q275.1 325.3 275.1 323.2L275.1 323.2L275.1 321.1Q275.1 319.0 276.5 317.5Q277.9 316.1 281.5 316.1L281.5 316.1Q285.1 316.1 286.5 317.5Q287.9 319.0 287.9 321.1L287.9 321.1L287.9 323.2Q287.9 325.3 286.5 326.8Q285.1 328.2 281.5 328.2ZM264.4 370.2L264.4 361.9L276.2 361.9L276.2 341.3L264.4 341.3L264.4 333.0L286.8 333.0L286.8 361.9L297.8 361.9L297.8 370.2L264.4 370.2ZM329.1 370.2L329.1 363.4L328.6 363.4Q327.2 366.8 324.6 368.9Q322.0 371.0 317.6 371.0L317.6 371.0Q314.5 371.0 311.9 369.9Q309.4 368.7 307.5 366.3Q305.7 364.0 304.7 360.3Q303.6 356.6 303.6 351.6L303.6 351.6Q303.6 346.5 304.7 342.9Q305.7 339.2 307.5 336.8Q309.4 334.4 311.9 333.3Q314.5 332.1 317.6 332.1L317.6 332.1Q319.8 332.1 321.5 332.7Q323.3 333.3 324.6 334.3Q325.9 335.3 326.9 336.7Q327.9 338.1 328.6 339.8L328.6 339.8L329.1 339.8L329.1 316.9L339.8 316.9L339.8 370.2L329.1 370.2ZM322.2 362.7L322.2 362.7Q325.0 362.7 327.0 361.4Q329.1 360.0 329.1 357.0L329.1 357.0L329.1 346.1Q329.1 343.2 327.0 341.8Q325.0 340.4 322.2 340.4L322.2 340.4Q318.6 340.4 316.6 342.6Q314.7 344.8 314.7 348.7L314.7 348.7L314.7 354.5Q314.7 358.3 316.6 360.5Q318.6 362.7 322.2 362.7ZM365.6 371.0L365.6 371.0Q361.6 371.0 359.8 369.3Q358.0 367.5 358.0 365.0L358.0 365.0L358.0 362.5Q358.0 360.1 359.8 358.3Q361.6 356.5 365.6 356.5L365.6 356.5Q369.6 356.5 371.4 358.3Q373.2 360.1 373.2 362.5L373.2 362.5L373.2 365.0Q373.2 367.5 371.4 369.3Q369.6 371.0 365.6 371.0ZM393.8 384.6L393.8 376.3L408.1 376.3L408.1 341.3L393.7 341.3L393.7 333.0L418.7 333.0L418.7 373.8Q418.7 378.5 415.9 381.5Q413.1 384.6 407.4 384.6L407.4 384.6L393.8 384.6ZM413.4 328.2L413.4 328.2Q409.8 328.2 408.4 326.8Q407.0 325.3 407.0 323.2L407.0 323.2L407.0 321.1Q407.0 319.0 408.4 317.5Q409.8 316.1 413.4 316.1L413.4 316.1Q416.9 316.1 418.4 317.5Q419.8 319.0 419.8 321.1L419.8 321.1L419.8 323.2Q419.8 325.3 418.4 326.8Q416.9 328.2 413.4 328.2ZM451.6 371.0L451.6 371.0Q445.4 371.0 440.8 369.1Q436.2 367.3 433.9 364.0L433.9 364.0L439.9 358.5Q442.1 360.9 445.0 362.2Q447.9 363.5 451.6 363.5L451.6 363.5Q454.8 363.5 456.6 362.6Q458.4 361.6 458.4 359.6L458.4 359.6Q458.4 358.0 457.2 357.4Q456.0 356.8 453.8 356.4L453.8 356.4L447.8 355.5Q445.3 355.1 443.1 354.3Q441.0 353.6 439.4 352.3Q437.8 351.0 436.9 349.1Q435.9 347.3 435.9 344.6L435.9 344.6Q435.9 338.8 440.4 335.4Q444.9 332.1 452.9 332.1L452.9 332.1Q458.4 332.1 462.3 333.6Q466.1 335.1 468.4 337.8L468.4 337.8L463.1 343.9Q461.4 342.1 458.8 340.8Q456.2 339.6 452.6 339.6L452.6 339.6Q446.4 339.6 446.4 343.4L446.4 343.4Q446.4 345.0 447.6 345.6Q448.8 346.2 451.0 346.6L451.0 346.6L456.9 347.5Q459.4 347.9 461.6 348.7Q463.7 349.4 465.4 350.7Q467.0 352.0 467.9 353.9Q468.8 355.8 468.8 358.4L468.8 358.4Q468.8 364.2 464.3 367.6Q459.8 371.0 451.6 371.0ZM485.8 381.0L489.9 357.6L503.6 357.6L493.8 381.0L485.8 381.0Z M565.1 370.2L565.1 361.9L576.1 361.9L576.1 341.3L564.4 341.3L564.4 333.0L576.1 333.0L576.1 327.6Q576.1 322.8 578.8 319.9Q581.6 316.9 587.4 316.9L587.4 316.9L600.0 316.9L600.0 325.2L586.7 325.2L586.7 333.0L600.0 333.0L600.0 341.3L586.7 341.3L586.7 361.9L598.4 361.9L598.4 370.2L565.1 370.2ZM608.5 370.2L608.5 361.9L617.1 361.9L617.1 341.3L608.5 341.3L608.5 333.0L627.8 333.0L627.8 343.5L628.3 343.5Q628.8 341.5 629.7 339.6Q630.6 337.7 632.0 336.2Q633.4 334.7 635.4 333.9Q637.4 333.0 640.1 333.0L640.1 333.0L643.7 333.0L643.7 342.8L635.7 342.8Q631.8 342.8 629.8 345.1Q627.8 347.5 627.8 350.9L627.8 350.9L627.8 361.9L640.0 361.9L640.0 370.2L608.5 370.2ZM669.0 371.0L669.0 371.0Q659.6 371.0 654.8 365.8Q650.0 360.6 650.0 351.7L650.0 351.7Q650.0 347.2 651.3 343.5Q652.5 339.9 654.9 337.4Q657.2 334.8 660.5 333.5Q663.9 332.1 668.1 332.1L668.1 332.1Q672.2 332.1 675.6 333.5Q678.9 334.8 681.2 337.2Q683.5 339.7 684.7 343.2Q686.0 346.7 686.0 351.0L686.0 351.0L686.0 354.2L660.6 354.2L660.6 354.8Q660.6 358.4 662.8 360.6Q665.0 362.8 669.4 362.8L669.4 362.8Q672.7 362.8 675.1 361.5Q677.4 360.3 679.2 358.2L679.2 358.2L684.9 364.5Q682.8 367.1 678.9 369.1Q675.0 371.0 669.0 371.0ZM668.1 339.8L668.1 339.8Q664.7 339.8 662.6 341.9Q660.6 344.0 660.6 347.6L660.6 347.6L660.6 348.2L675.6 348.2L675.6 347.6Q675.6 343.9 673.6 341.9Q671.6 339.8 668.1 339.8ZM710.8 371.0L710.8 371.0Q704.6 371.0 700.0 369.1Q695.4 367.3 693.1 364.0L693.1 364.0L699.1 358.5Q701.3 360.9 704.2 362.2Q707.1 363.5 710.8 363.5L710.8 363.5Q714.0 363.5 715.8 362.6Q717.6 361.6 717.6 359.6L717.6 359.6Q717.6 358.0 716.4 357.4Q715.2 356.8 713.0 356.4L713.0 356.4L707.0 355.5Q704.5 355.1 702.3 354.3Q700.2 353.6 698.6 352.3Q697.0 351.0 696.1 349.1Q695.1 347.3 695.1 344.6L695.1 344.6Q695.1 338.8 699.6 335.4Q704.1 332.1 712.1 332.1L712.1 332.1Q717.6 332.1 721.5 333.6Q725.3 335.1 727.6 337.8L727.6 337.8L722.3 343.9Q720.6 342.1 718.0 340.8Q715.4 339.6 711.8 339.6L711.8 339.6Q705.6 339.6 705.6 343.4L705.6 343.4Q705.6 345.0 706.8 345.6Q708.0 346.2 710.2 346.6L710.2 346.6L716.1 347.5Q718.6 347.9 720.8 348.7Q722.9 349.4 724.6 350.7Q726.2 352.0 727.1 353.9Q728.0 355.8 728.0 358.4L728.0 358.4Q728.0 364.2 723.5 367.6Q719.0 371.0 710.8 371.0ZM737.5 370.2L737.5 316.9L748.1 316.9L748.1 339.8L748.6 339.8Q749.2 338.2 750.2 336.8Q751.1 335.4 752.4 334.4Q753.8 333.4 755.5 332.7Q757.3 332.1 759.5 332.1L759.5 332.1Q762.2 332.1 764.4 333.0Q766.6 333.9 768.2 335.7Q769.8 337.5 770.7 340.1Q771.6 342.7 771.6 346.1L771.6 346.1L771.6 370.2L761.0 370.2L761.0 347.5Q761.0 340.3 754.7 340.3L754.7 340.3Q753.5 340.3 752.3 340.7Q751.1 341.0 750.2 341.7Q749.2 342.4 748.7 343.4Q748.1 344.4 748.1 345.7L748.1 345.7L748.1 370.2L737.5 370.2Z M860.4 370.2L854.3 370.2Q851.0 370.2 848.9 368.5Q846.9 366.8 846.6 363.6L846.6 363.6L846.2 363.6Q845.2 367.3 842.2 369.1Q839.2 371.0 834.9 371.0L834.9 371.0Q829.5 371.0 826.2 368.1Q822.9 365.2 822.9 359.9L822.9 359.9Q822.9 354.1 827.2 351.3Q831.4 348.5 839.6 348.5L839.6 348.5L845.6 348.5L845.6 346.6Q845.6 343.3 844.1 341.6Q842.5 339.9 838.9 339.9L838.9 339.9Q835.5 339.9 833.4 341.2Q831.3 342.5 829.8 344.6L829.8 344.6L824.0 339.4Q825.8 336.2 829.8 334.2Q833.8 332.1 840.1 332.1L840.1 332.1Q847.7 332.1 852.0 335.6Q856.3 339.1 856.3 346.2L856.3 346.2L856.3 362.4L860.4 362.4L860.4 370.2ZM838.9 364.0L838.9 364.0Q841.7 364.0 843.7 362.7Q845.6 361.3 845.6 358.7L845.6 358.7L845.6 354.2L839.9 354.2Q833.4 354.2 833.4 358.6L833.4 358.6L833.4 360.1Q833.4 362.0 834.9 363.0Q836.4 364.0 838.9 364.0ZM877.7 370.2L867.1 370.2L867.1 333.0L877.7 333.0L877.7 339.8L878.2 339.8Q878.8 338.2 879.8 336.8Q880.7 335.4 882.0 334.4Q883.4 333.4 885.1 332.7Q886.9 332.1 889.1 332.1L889.1 332.1Q891.8 332.1 894.0 333.0Q896.2 333.9 897.8 335.7Q899.4 337.5 900.3 340.1Q901.2 342.7 901.2 346.1L901.2 346.1L901.2 370.2L890.6 370.2L890.6 347.5Q890.6 340.3 884.3 340.3L884.3 340.3Q883.1 340.3 881.9 340.7Q880.7 341.0 879.8 341.7Q878.8 342.4 878.3 343.4Q877.7 344.4 877.7 345.7L877.7 345.7L877.7 370.2ZM933.9 370.2L933.9 363.4L933.4 363.4Q932.0 366.8 929.4 368.9Q926.8 371.0 922.4 371.0L922.4 371.0Q919.3 371.0 916.7 369.9Q914.2 368.7 912.3 366.3Q910.5 364.0 909.5 360.3Q908.4 356.6 908.4 351.6L908.4 351.6Q908.4 346.5 909.5 342.9Q910.5 339.2 912.3 336.8Q914.2 334.4 916.7 333.3Q919.3 332.1 922.4 332.1L922.4 332.1Q924.6 332.1 926.3 332.7Q928.1 333.3 929.4 334.3Q930.7 335.3 931.7 336.7Q932.7 338.1 933.4 339.8L933.4 339.8L933.9 339.8L933.9 316.9L944.6 316.9L944.6 370.2L933.9 370.2ZM927.0 362.7L927.0 362.7Q929.8 362.7 931.8 361.4Q933.9 360.0 933.9 357.0L933.9 357.0L933.9 346.1Q933.9 343.2 931.8 341.8Q929.8 340.4 927.0 340.4L927.0 340.4Q923.4 340.4 921.4 342.6Q919.5 344.8 919.5 348.7L919.5 348.7L919.5 354.5Q919.5 358.3 921.4 360.5Q923.4 362.7 927.0 362.7Z M149.2 464.6L149.2 464.6Q143.0 464.6 138.4 462.7Q133.8 460.9 131.5 457.6L131.5 457.6L137.5 452.1Q139.7 454.5 142.6 455.8Q145.5 457.1 149.2 457.1L149.2 457.1Q152.4 457.1 154.2 456.2Q156.0 455.2 156.0 453.2L156.0 453.2Q156.0 451.6 154.8 451.0Q153.6 450.4 151.4 450.0L151.4 450.0L145.4 449.1Q142.9 448.7 140.7 447.9Q138.6 447.2 137 445.9Q135.4 444.6 134.5 442.7Q133.5 440.9 133.5 438.2L133.5 438.2Q133.5 432.4 138.0 429.0Q142.5 425.7 150.5 425.7L150.5 425.7Q156.0 425.7 159.9 427.2Q163.7 428.7 166.0 431.4L166.0 431.4L160.7 437.5Q159.0 435.7 156.4 434.4Q153.8 433.2 150.2 433.2L150.2 433.2Q144.0 433.2 144.0 437.0L144.0 437.0Q144.0 438.6 145.2 439.2Q146.4 439.8 148.6 440.2L148.6 440.2L154.5 441.1Q157.0 441.5 159.2 442.3Q161.3 443.0 163.0 444.3Q164.6 445.6 165.5 447.5Q166.4 449.4 166.4 452.0L166.4 452.0Q166.4 457.8 161.9 461.2Q157.4 464.6 149.2 464.6ZM199.1 463.8L186.5 463.8L173.1 426.6L184.4 426.6L189.2 442.5L192.7 454.9L193.3 454.9L196.8 442.5L201.7 426.6L212.5 426.6L199.1 463.8ZM237.0 464.6L237.0 464.6Q227.6 464.6 222.8 459.4Q218.0 454.2 218.0 445.3L218.0 445.3Q218.0 440.8 219.3 437.1Q220.5 433.5 222.9 431.0Q225.2 428.4 228.5 427.1Q231.9 425.7 236.1 425.7L236.1 425.7Q240.2 425.7 243.6 427.1Q246.9 428.4 249.2 430.8Q251.5 433.3 252.7 436.8Q254.0 440.3 254.0 444.6L254.0 444.6L254.0 447.8L228.6 447.8L228.6 448.4Q228.6 452.0 230.8 454.2Q233.0 456.4 237.4 456.4L237.4 456.4Q240.7 456.4 243.1 455.1Q245.4 453.9 247.2 451.8L247.2 451.8L252.9 458.1Q250.8 460.7 246.9 462.7Q243.0 464.6 237.0 464.6ZM236.1 433.4L236.1 433.4Q232.7 433.4 230.6 435.5Q228.6 437.6 228.6 441.2L228.6 441.2L228.6 441.8L243.6 441.8L243.6 441.2Q243.6 437.5 241.6 435.5Q239.6 433.4 236.1 433.4ZM262.5 463.8L262.5 455.5L273.9 455.5L273.9 418.8L262.5 418.8L262.5 410.5L284.5 410.5L284.5 455.5L295.9 455.5L295.9 463.8L262.5 463.8ZM339.0 463.8L325.3 463.8Q319.5 463.8 316.7 460.7Q313.9 457.7 313.9 453.0L313.9 453.0L313.9 434.9L303.8 434.9L303.8 426.6L310.4 426.6Q312.8 426.6 313.8 425.7Q314.8 424.7 314.8 422.2L314.8 422.2L314.8 413.5L324.6 413.5L324.6 426.6L339.0 426.6L339.0 434.9L324.6 434.9L324.6 455.5L339.0 455.5L339.0 463.8ZM366.6 464.6L366.6 464.6Q357.2 464.6 352.4 459.4Q347.6 454.2 347.6 445.3L347.6 445.3Q347.6 440.8 348.9 437.1Q350.1 433.5 352.5 431.0Q354.8 428.4 358.1 427.1Q361.5 425.7 365.7 425.7L365.7 425.7Q369.8 425.7 373.2 427.1Q376.5 428.4 378.8 430.8Q381.1 433.3 382.3 436.8Q383.6 440.3 383.6 444.6L383.6 444.6L383.6 447.8L358.2 447.8L358.2 448.4Q358.2 452.0 360.4 454.2Q362.6 456.4 367.0 456.4L367.0 456.4Q370.3 456.4 372.7 455.1Q375.0 453.9 376.8 451.8L376.8 451.8L382.5 458.1Q380.4 460.7 376.5 462.7Q372.6 464.6 366.6 464.6ZM365.7 433.4L365.7 433.4Q362.3 433.4 360.2 435.5Q358.2 437.6 358.2 441.2L358.2 441.2L358.2 441.8L373.2 441.8L373.2 441.2Q373.2 437.5 371.2 435.5Q369.2 433.4 365.7 433.4Z " clip-path="url(#satori_cp-id-1-0-0)" mask="url(#satori_om-id-1-0-0)"/><path fill="black" d="M130.7 520.3L130.7 499.6L132.9 499.6L132.9 508.2L133.0 508.2Q134.4 505.5 137.5 505.5L137.5 505.5Q140.1 505.5 141.6 507.5Q143.1 509.5 143.1 513.0L143.1 513.0Q143.1 516.6 141.6 518.6Q140.1 520.6 137.5 520.6L137.5 520.6Q134.4 520.6 133.0 517.9L133.0 517.9L132.9 517.9L132.9 520.3L130.7 520.3ZM136.6 518.6L136.6 518.6Q138.6 518.6 139.6 517.4Q140.7 516.2 140.7 514.3L140.7 514.3L140.7 511.8Q140.7 509.9 139.6 508.7Q138.6 507.5 136.6 507.5L136.6 507.5Q135.8 507.5 135.2 507.7Q134.5 507.9 134.0 508.2Q133.5 508.6 133.2 509.2Q132.9 509.7 132.9 510.4L132.9 510.4L132.9 515.7Q132.9 516.4 133.2 516.9Q133.5 517.5 134.0 517.8Q134.5 518.2 135.2 518.4Q135.8 518.6 136.6 518.6ZM155.4 511.9L157.9 505.8L160.1 505.8L152.9 523.4Q152.7 524.1 152.4 524.5Q152.1 525.0 151.7 525.3Q151.2 525.6 150.7 525.7Q150.1 525.9 149.3 525.9L149.3 525.9L147.1 525.9L147.1 524.0L150.5 524.0L152.1 520.0L146.3 505.8L148.6 505.8L151.0 511.9L153.2 517.4L153.3 517.4L155.4 511.9Z "/><clipPath id="satori_cp-id-1-0-1-0-2"><rect x="178" y="489" width="168" height="36"/></clipPath><mask id="satori_om-id-1-0-1-0-2"><rect x="178" y="489" width="168" height="36" fill="#fff"/></mask><path fill="black" d="M186.4 520.4L186.4 520.4Q182.5 520.4 180.6 517.8Q178.8 515.1 178.8 510.3L178.8 510.3Q178.8 505.5 180.6 502.9Q182.5 500.2 186.4 500.2L186.4 500.2Q190.3 500.2 192.2 502.9Q194.0 505.5 194.0 510.3L194.0 510.3Q194.0 515.1 192.2 517.8Q190.3 520.4 186.4 520.4ZM186.4 517.0L186.4 517.0Q188.2 517.0 188.9 515.7Q189.6 514.4 189.6 512.0L189.6 512.0L189.6 508.6Q189.6 506.3 188.9 504.9Q188.2 503.6 186.4 503.6L186.4 503.6Q184.6 503.6 183.9 504.9Q183.2 506.3 183.2 508.6L183.2 508.6L183.2 512.0Q183.2 514.4 183.9 515.7Q184.6 517.0 186.4 517.0ZM203.0 520.4L203.0 520.4Q200.6 520.4 198.8 519.7Q197.1 519.0 196.2 517.7L196.2 517.7L198.5 515.6Q199.3 516.5 200.5 517.0Q201.6 517.5 203.1 517.5L203.1 517.5Q204.3 517.5 205.0 517.1Q205.7 516.8 205.7 516.0L205.7 516.0Q205.7 515.4 205.2 515.1Q204.7 514.9 203.9 514.7L203.9 514.7L201.6 514.4Q200.6 514.2 199.8 513.9Q198.9 513.7 198.3 513.1Q197.7 512.6 197.3 511.9Q197.0 511.2 197.0 510.2L197.0 510.2Q197.0 507.9 198.7 506.6Q200.4 505.3 203.6 505.3L203.6 505.3Q205.7 505.3 207.2 505.9Q208.7 506.5 209.6 507.5L209.6 507.5L207.5 509.9Q206.9 509.2 205.9 508.7Q204.9 508.2 203.4 508.2L203.4 508.2Q201.0 508.2 201.0 509.7L201.0 509.7Q201.0 510.3 201.5 510.6Q202.0 510.8 202.8 510.9L202.8 510.9L205.1 511.3Q206.1 511.4 206.9 511.7Q207.8 512.0 208.4 512.5Q209.0 513.0 209.4 513.8Q209.8 514.5 209.8 515.5L209.8 515.5Q209.8 517.8 208.0 519.1Q206.3 520.4 203.0 520.4ZM220.9 503.8L220.9 503.8Q219.5 503.8 219.0 503.2Q218.4 502.6 218.4 501.8L218.4 501.8L218.4 501.0Q218.4 500.2 219.0 499.6Q219.5 499.1 220.9 499.1L220.9 499.1Q222.3 499.1 222.8 499.6Q223.4 500.2 223.4 501.0L223.4 501.0L223.4 501.8Q223.4 502.6 222.8 503.2Q222.3 503.8 220.9 503.8ZM214.2 520.1L214.2 516.9L218.8 516.9L218.8 508.9L214.2 508.9L214.2 505.6L223.0 505.6L223.0 516.9L227.2 516.9L227.2 520.1L214.2 520.1ZM243.3 520.1L237.9 520.1Q235.7 520.1 234.6 518.9Q233.5 517.7 233.5 515.9L233.5 515.9L233.5 508.9L229.6 508.9L229.6 505.6L232.1 505.6Q233.0 505.6 233.4 505.3Q233.8 504.9 233.8 503.9L233.8 503.9L233.8 500.5L237.6 500.5L237.6 505.6L243.3 505.6L243.3 508.9L237.6 508.9L237.6 516.9L243.3 516.9L243.3 520.1ZM253.6 520.4L253.6 520.4Q251.9 520.4 250.6 519.9Q249.2 519.4 248.3 518.4Q247.4 517.4 246.9 516.0Q246.3 514.6 246.3 512.9L246.3 512.9Q246.3 511.1 246.9 509.7Q247.4 508.3 248.3 507.3Q249.2 506.3 250.6 505.8Q251.9 505.3 253.6 505.3L253.6 505.3Q255.3 505.3 256.6 505.8Q258.0 506.3 258.9 507.3Q259.8 508.3 260.3 509.7Q260.9 511.1 260.9 512.9L260.9 512.9Q260.9 514.6 260.3 516.0Q259.8 517.4 258.9 518.4Q258.0 519.4 256.6 519.9Q255.3 520.4 253.6 520.4ZM253.6 517.3L253.6 517.3Q255.0 517.3 255.8 516.5Q256.6 515.6 256.6 514.0L256.6 514.0L256.6 511.7Q256.6 510.1 255.8 509.3Q255.0 508.4 253.6 508.4L253.6 508.4Q252.2 508.4 251.4 509.3Q250.6 510.1 250.6 511.7L250.6 511.7L250.6 514.0Q250.6 515.6 251.4 516.5Q252.2 517.3 253.6 517.3Z M285.6 520.1L280.3 520.1L279.1 500.5L282.7 500.5L283.3 512.3L283.4 515.9L283.7 515.9L285.4 504.8L289.2 504.8L290.8 515.9L291.1 515.9L291.3 512.4L291.8 500.5L295.3 500.5L294.1 520.1L288.8 520.1L287.3 509.3L287.1 509.3L285.6 520.1ZM311.6 520.1L309.2 520.1Q307.9 520.1 307.2 519.4Q306.4 518.8 306.2 517.5L306.2 517.5L306.1 517.5Q305.7 519.0 304.5 519.7Q303.4 520.4 301.7 520.4L301.7 520.4Q299.6 520.4 298.3 519.3Q297.1 518.2 297.1 516.1L297.1 516.1Q297.1 513.8 298.7 512.8Q300.4 511.7 303.6 511.7L303.6 511.7L305.9 511.7L305.9 510.9Q305.9 509.6 305.3 509.0Q304.7 508.3 303.2 508.3L303.2 508.3Q301.9 508.3 301.1 508.8Q300.3 509.3 299.7 510.2L299.7 510.2L297.4 508.1Q298.2 506.9 299.7 506.1Q301.3 505.3 303.7 505.3L303.7 505.3Q306.7 505.3 308.4 506.7Q310.0 508.0 310.0 510.8L310.0 510.8L310.0 517.1L311.6 517.1L311.6 520.1ZM303.3 517.7L303.3 517.7Q304.4 517.7 305.1 517.2Q305.9 516.6 305.9 515.6L305.9 515.6L305.9 513.9L303.7 513.9Q301.1 513.9 301.1 515.6L301.1 515.6L301.1 516.2Q301.1 516.9 301.7 517.3Q302.3 517.7 303.3 517.7ZM318.4 520.1L314.2 520.1L314.2 505.6L318.4 505.6L318.4 508.3L318.5 508.3Q318.8 507.7 319.1 507.1Q319.5 506.6 320.0 506.2Q320.5 505.8 321.2 505.5Q321.9 505.3 322.8 505.3L322.8 505.3Q323.8 505.3 324.7 505.7Q325.6 506.0 326.2 506.7Q326.8 507.4 327.1 508.4Q327.5 509.4 327.5 510.7L327.5 510.7L327.5 520.1L323.3 520.1L323.3 511.3Q323.3 508.5 320.9 508.5L320.9 508.5Q320.4 508.5 320.0 508.6Q319.5 508.8 319.1 509.0Q318.8 509.3 318.6 509.7Q318.4 510.1 318.4 510.6L318.4 510.6L318.4 520.1ZM345.5 521.5L345.5 521.5Q345.5 523.8 343.6 524.9Q341.7 526.0 337.5 526.0L337.5 526.0Q335.4 526.0 334.1 525.8Q332.8 525.6 332.0 525.1Q331.2 524.7 330.8 524.0Q330.5 523.4 330.5 522.7L330.5 522.7Q330.5 521.5 331.2 520.8Q332.0 520.2 333.3 519.9L333.3 519.9L333.3 519.7Q332.4 519.4 331.8 518.9Q331.3 518.4 331.3 517.4L331.3 517.4Q331.3 516.4 332.0 515.9Q332.7 515.4 333.9 515.1L333.9 515.1L333.9 514.9Q332.6 514.3 331.9 513.2Q331.2 512.1 331.2 510.5L331.2 510.5Q331.2 509.2 331.6 508.2Q332.1 507.3 332.9 506.6Q333.7 506.0 334.9 505.6Q336.0 505.3 337.4 505.3L337.4 505.3Q338.8 505.3 340.0 505.6L340.0 505.6L340.0 504.8Q340.0 504.0 340.6 503.4Q341.2 502.9 342.2 502.9L342.2 502.9L344.7 502.9L344.7 505.9L341.3 505.9L341.3 506.1Q342.4 506.8 343.1 507.8Q343.8 508.9 343.8 510.5L343.8 510.5Q343.8 511.7 343.3 512.7Q342.9 513.6 342.0 514.3Q341.2 514.9 340.0 515.3Q338.9 515.6 337.4 515.6L337.4 515.6Q336.8 515.6 336.2 515.5Q335.6 515.5 335.1 515.3L335.1 515.3Q334.8 515.5 334.6 515.8Q334.4 516.0 334.4 516.4L334.4 516.4Q334.4 516.7 334.5 516.9Q334.7 517.1 335.0 517.2Q335.3 517.3 335.7 517.3Q336.1 517.4 336.5 517.4L336.5 517.4L339.8 517.4Q341.3 517.4 342.4 517.7Q343.5 518.0 344.2 518.6Q344.9 519.1 345.2 519.9Q345.5 520.6 345.5 521.5ZM341.6 521.9L341.6 521.9Q341.6 521.3 341.2 521.0Q340.7 520.7 339.4 520.7L339.4 520.7L334.5 520.7Q333.9 521.1 333.9 521.8L333.9 521.8Q333.9 522.5 334.5 522.9Q335.1 523.4 336.5 523.4L336.5 523.4L338.9 523.4Q340.3 523.4 341.0 523.0Q341.6 522.6 341.6 521.9ZM337.4 513.0L337.4 513.0Q338.7 513.0 339.3 512.4Q339.8 511.7 339.8 510.8L339.8 510.8L339.8 510.1Q339.8 509.2 339.3 508.6Q338.7 507.9 337.4 507.9L337.4 507.9Q336.2 507.9 335.6 508.6Q335.1 509.2 335.1 510.1L335.1 510.1L335.1 510.8Q335.1 511.7 335.6 512.4Q336.2 513.0 337.4 513.0Z " clip-path="url(#satori_cp-id-1-0-1-0-2)" mask="url(#satori_om-id-1-0-1-0-2)"/><clipPath id="satori_cp-id-1-0-1-1"><rect x="886" y="489" width="185" height="36"/></clipPath><mask id="satori_om-id-1-0-1-1"><rect x="886" y="489" width="185" height="36" fill="#fff"/></mask><path fill="black" d="M896.9 520.1L896.9 511.9L891.9 511.9L891.9 520.1L887.7 520.1L887.7 500.5L891.9 500.5L891.9 508.5L896.9 508.5L896.9 500.5L901.1 500.5L901.1 520.1L896.9 520.1ZM912.1 503.8L912.1 503.8Q910.7 503.8 910.1 503.2Q909.6 502.6 909.6 501.8L909.6 501.8L909.6 501.0Q909.6 500.2 910.1 499.6Q910.7 499.1 912.1 499.1L912.1 499.1Q913.5 499.1 914.0 499.6Q914.6 500.2 914.6 501.0L914.6 501.0L914.6 501.8Q914.6 502.6 914.0 503.2Q913.5 503.8 912.1 503.8ZM905.4 520.1L905.4 516.9L910.0 516.9L910.0 508.9L905.4 508.9L905.4 505.6L914.2 505.6L914.2 516.9L918.4 516.9L918.4 520.1L905.4 520.1ZM921.3 520.1L921.3 499.4L925.4 499.4L925.4 508.3L925.6 508.3Q926.1 507.0 927.1 506.1Q928.1 505.3 929.9 505.3L929.9 505.3Q931.1 505.3 932.1 505.8Q933.1 506.2 933.8 507.1Q934.5 508.1 934.9 509.5Q935.3 510.9 935.3 512.9L935.3 512.9Q935.3 514.8 934.9 516.3Q934.5 517.7 933.8 518.6Q933.1 519.5 932.1 520.0Q931.1 520.4 929.9 520.4L929.9 520.4Q928.1 520.4 927.1 519.6Q926.1 518.8 925.6 517.5L925.6 517.5L925.4 517.5L925.4 520.1L921.3 520.1ZM928.1 517.2L928.1 517.2Q929.5 517.2 930.2 516.4Q931.0 515.5 931.0 514.0L931.0 514.0L931.0 511.7Q931.0 510.2 930.2 509.4Q929.5 508.5 928.1 508.5L928.1 508.5Q927.0 508.5 926.2 509.1Q925.4 509.6 925.4 510.7L925.4 510.7L925.4 515.0Q925.4 516.1 926.2 516.7Q927.0 517.2 928.1 517.2ZM945.2 520.4L945.2 520.4Q941.6 520.4 939.7 518.4Q937.8 516.4 937.8 512.9L937.8 512.9Q937.8 511.2 938.3 509.7Q938.8 508.3 939.7 507.3Q940.6 506.3 941.9 505.8Q943.2 505.3 944.8 505.3L944.8 505.3Q946.5 505.3 947.7 505.8Q949.0 506.3 949.9 507.3Q950.8 508.2 951.3 509.6Q951.8 511.0 951.8 512.6L951.8 512.6L951.8 513.9L941.9 513.9L941.9 514.1Q941.9 515.5 942.8 516.4Q943.7 517.2 945.3 517.2L945.3 517.2Q946.6 517.2 947.5 516.7Q948.5 516.3 949.1 515.4L949.1 515.4L951.4 517.9Q950.5 518.9 949.0 519.7Q947.5 520.4 945.2 520.4ZM944.9 508.3L944.9 508.3Q943.5 508.3 942.7 509.1Q941.9 509.9 941.9 511.3L941.9 511.3L941.9 511.6L947.7 511.6L947.7 511.3Q947.7 509.9 947.0 509.1Q946.2 508.3 944.9 508.3ZM955.3 520.1L955.3 516.9L958.6 516.9L958.6 508.9L955.3 508.9L955.3 505.6L962.7 505.6L962.7 509.7L962.9 509.7Q963.1 508.9 963.5 508.2Q963.8 507.5 964.4 506.9Q964.9 506.3 965.7 506.0Q966.5 505.6 967.6 505.6L967.6 505.6L968.9 505.6L968.9 509.5L965.9 509.5Q964.3 509.5 963.5 510.4Q962.7 511.3 962.7 512.6L962.7 512.6L962.7 516.9L967.5 516.9L967.5 520.1L955.3 520.1ZM976.0 520.1L971.8 520.1L971.8 505.6L976.0 505.6L976.0 508.3L976.1 508.3Q976.4 507.7 976.7 507.1Q977.1 506.6 977.6 506.2Q978.1 505.8 978.8 505.5Q979.5 505.3 980.4 505.3L980.4 505.3Q981.4 505.3 982.3 505.7Q983.2 506.0 983.8 506.7Q984.4 507.4 984.7 508.4Q985.1 509.4 985.1 510.7L985.1 510.7L985.1 520.1L980.9 520.1L980.9 511.3Q980.9 508.5 978.5 508.5L978.5 508.5Q978.0 508.5 977.6 508.6Q977.1 508.8 976.7 509.0Q976.4 509.3 976.2 509.7Q976.0 510.1 976.0 510.6L976.0 510.6L976.0 520.1ZM1002.8 520.1L1000.4 520.1Q999.1 520.1 998.4 519.4Q997.6 518.8 997.4 517.5L997.4 517.5L997.3 517.5Q996.9 519.0 995.7 519.7Q994.6 520.4 992.9 520.4L992.9 520.4Q990.8 520.4 989.5 519.3Q988.3 518.2 988.3 516.1L988.3 516.1Q988.3 513.8 989.9 512.8Q991.6 511.7 994.8 511.7L994.8 511.7L997.1 511.7L997.1 510.9Q997.1 509.6 996.5 509.0Q995.9 508.3 994.4 508.3L994.4 508.3Q993.1 508.3 992.3 508.8Q991.5 509.3 990.9 510.2L990.9 510.2L988.6 508.1Q989.4 506.9 990.9 506.1Q992.5 505.3 994.9 505.3L994.9 505.3Q997.9 505.3 999.6 506.7Q1001.2 508.0 1001.2 510.8L1001.2 510.8L1001.2 517.1L1002.8 517.1L1002.8 520.1ZM994.5 517.7L994.5 517.7Q995.6 517.7 996.3 517.2Q997.1 516.6 997.1 515.6L997.1 515.6L997.1 513.9L994.9 513.9Q992.3 513.9 992.3 515.6L992.3 515.6L992.3 516.2Q992.3 516.9 992.9 517.3Q993.5 517.7 994.5 517.7ZM1018.5 520.1L1013.1 520.1Q1010.9 520.1 1009.8 518.9Q1008.7 517.7 1008.7 515.9L1008.7 515.9L1008.7 508.9L1004.8 508.9L1004.8 505.6L1007.3 505.6Q1008.2 505.6 1008.6 505.3Q1009.0 504.9 1009.0 503.9L1009.0 503.9L1009.0 500.5L1012.8 500.5L1012.8 505.6L1018.5 505.6L1018.5 508.9L1012.8 508.9L1012.8 516.9L1018.5 516.9L1018.5 520.1ZM1029.7 503.8L1029.7 503.8Q1028.3 503.8 1027.7 503.2Q1027.2 502.6 1027.2 501.8L1027.2 501.8L1027.2 501.0Q1027.2 500.2 1027.7 499.6Q1028.3 499.1 1029.7 499.1L1029.7 499.1Q1031.1 499.1 1031.6 499.6Q1032.2 500.2 1032.2 501.0L1032.2 501.0L1032.2 501.8Q1032.2 502.6 1031.6 503.2Q1031.1 503.8 1029.7 503.8ZM1023.0 520.1L1023.0 516.9L1027.6 516.9L1027.6 508.9L1023.0 508.9L1023.0 505.6L1031.8 505.6L1031.8 516.9L1036.0 516.9L1036.0 520.1L1023.0 520.1ZM1045.6 520.4L1045.6 520.4Q1043.9 520.4 1042.6 519.9Q1041.2 519.4 1040.3 518.4Q1039.4 517.4 1038.9 516.0Q1038.3 514.6 1038.3 512.9L1038.3 512.9Q1038.3 511.1 1038.9 509.7Q1039.4 508.3 1040.3 507.3Q1041.2 506.3 1042.6 505.8Q1043.9 505.3 1045.6 505.3L1045.6 505.3Q1047.3 505.3 1048.6 505.8Q1050.0 506.3 1050.9 507.3Q1051.8 508.3 1052.3 509.7Q1052.9 511.1 1052.9 512.9L1052.9 512.9Q1052.9 514.6 1052.3 516.0Q1051.8 517.4 1050.9 518.4Q1050.0 519.4 1048.6 519.9Q1047.3 520.4 1045.6 520.4ZM1045.6 517.3L1045.6 517.3Q1047.0 517.3 1047.8 516.5Q1048.6 515.6 1048.6 514.0L1048.6 514.0L1048.6 511.7Q1048.6 510.1 1047.8 509.3Q1047.0 508.4 1045.6 508.4L1045.6 508.4Q1044.2 508.4 1043.4 509.3Q1042.6 510.1 1042.6 511.7L1042.6 511.7L1042.6 514.0Q1042.6 515.6 1043.4 516.5Q1044.2 517.3 1045.6 517.3ZM1060.0 520.1L1055.8 520.1L1055.8 505.6L1060.0 505.6L1060.0 508.3L1060.1 508.3Q1060.4 507.7 1060.7 507.1Q1061.1 506.6 1061.6 506.2Q1062.1 505.8 1062.8 505.5Q1063.5 505.3 1064.4 505.3L1064.4 505.3Q1065.4 505.3 1066.3 505.7Q1067.2 506.0 1067.8 506.7Q1068.4 507.4 1068.7 508.4Q1069.1 509.4 1069.1 510.7L1069.1 510.7L1069.1 520.1L1064.9 520.1L1064.9 511.3Q1064.9 508.5 1062.5 508.5L1062.5 508.5Q1062.0 508.5 1061.6 508.6Q1061.1 508.8 1060.7 509.0Q1060.4 509.3 1060.2 509.7Q1060.0 510.1 1060.0 510.6L1060.0 510.6L1060.0 520.1Z " clip-path="url(#satori_cp-id-1-0-1-1)" mask="url(#satori_om-id-1-0-1-1)"/></svg>